<?xml version="1.0" encoding="UTF-8" standalone="no"?>
<!DOCTYPE svg PUBLIC "-//W3C//DTD SVG 1.1//EN"
 "http://www.w3.org/Graphics/SVG/1.1/DTD/svg11.dtd">
<!-- Generated by graphviz version 2.42.3 (20191010.1750)
 -->
<!-- Title: snakemake_dag Pages: 1 -->
<svg width="485pt" height="332pt"
 viewBox="0.00 0.00 485.00 332.00" xmlns="http://www.w3.org/2000/svg" xmlns:xlink="http://www.w3.org/1999/xlink">
<g id="graph0" class="graph" transform="scale(1 1) rotate(0) translate(4 328)">
<title>snakemake_dag</title>
<polygon fill="white" stroke="transparent" points="-4,4 -4,-328 481,-328 481,4 -4,4"/>
<!-- 0 -->
<g id="node1" class="node">
<title>0</title>
<path fill="none" stroke="#d85656" stroke-width="2" d="M201.5,-36C201.5,-36 171.5,-36 171.5,-36 165.5,-36 159.5,-30 159.5,-24 159.5,-24 159.5,-12 159.5,-12 159.5,-6 165.5,0 171.5,0 171.5,0 201.5,0 201.5,0 207.5,0 213.5,-6 213.5,-12 213.5,-12 213.5,-24 213.5,-24 213.5,-30 207.5,-36 201.5,-36"/>
<text text-anchor="middle" x="186.5" y="-15.5" font-family="sans" font-size="10.00">all</text>
</g>
<!-- 1 -->
<g id="node2" class="node">
<title>1</title>
<path fill="none" stroke="#59d856" stroke-width="2" stroke-dasharray="5,2" d="M147,-108C147,-108 12,-108 12,-108 6,-108 0,-102 0,-96 0,-96 0,-84 0,-84 0,-78 6,-72 12,-72 12,-72 147,-72 147,-72 153,-72 159,-78 159,-84 159,-84 159,-96 159,-96 159,-102 153,-108 147,-108"/>
<text text-anchor="middle" x="79.5" y="-87.5" font-family="sans" font-size="10.00">generate_quality_scores_raw</text>
</g>
<!-- 1&#45;&gt;0 -->
<g id="edge1" class="edge">
<title>1&#45;&gt;0</title>
<path fill="none" stroke="grey" stroke-width="2" d="M105.68,-71.88C119.54,-62.81 136.74,-51.55 151.71,-41.76"/>
<polygon fill="grey" stroke="grey" stroke-width="2" points="153.77,-44.59 160.22,-36.19 149.94,-38.74 153.77,-44.59"/>
</g>
<!-- 2 -->
<g id="node3" class="node">
<title>2</title>
<path fill="none" stroke="#d89556" stroke-width="2" stroke-dasharray="5,2" d="M239,-180C239,-180 80,-180 80,-180 74,-180 68,-174 68,-168 68,-168 68,-156 68,-156 68,-150 74,-144 80,-144 80,-144 239,-144 239,-144 245,-144 251,-150 251,-156 251,-156 251,-168 251,-168 251,-174 245,-180 239,-180"/>
<text text-anchor="middle" x="159.5" y="-159.5" font-family="sans" font-size="10.00">generate_quality_scores_trimmed</text>
</g>
<!-- 2&#45;&gt;0 -->
<g id="edge2" class="edge">
<title>2&#45;&gt;0</title>
<path fill="none" stroke="grey" stroke-width="2" d="M162.76,-143.87C167.36,-119.67 175.81,-75.21 181.29,-46.39"/>
<polygon fill="grey" stroke="grey" stroke-width="2" points="184.8,-46.67 183.23,-36.19 177.93,-45.36 184.8,-46.67"/>
</g>
<!-- 3 -->
<g id="node4" class="node">
<title>3</title>
<path fill="none" stroke="#56d8d8" stroke-width="2" stroke-dasharray="5,2" d="M220.5,-324C220.5,-324 190.5,-324 190.5,-324 184.5,-324 178.5,-318 178.5,-312 178.5,-312 178.5,-300 178.5,-300 178.5,-294 184.5,-288 190.5,-288 190.5,-288 220.5,-288 220.5,-288 226.5,-288 232.5,-294 232.5,-300 232.5,-300 232.5,-312 232.5,-312 232.5,-318 226.5,-324 220.5,-324"/>
<text text-anchor="middle" x="205.5" y="-303.5" font-family="sans" font-size="10.00">trim_se</text>
</g>
<!-- 3&#45;&gt;2 -->
<g id="edge4" class="edge">
<title>3&#45;&gt;2</title>
<path fill="none" stroke="grey" stroke-width="2" d="M195.31,-287.84C189.67,-277.71 182.92,-264.46 178.5,-252 171.34,-231.8 166.43,-208.03 163.4,-190.13"/>
<polygon fill="grey" stroke="grey" stroke-width="2" points="166.83,-189.41 161.79,-180.09 159.92,-190.52 166.83,-189.41"/>
</g>
<!-- 6 -->
<g id="node7" class="node">
<title>6</title>
<path fill="none" stroke="#569ad8" stroke-width="2" stroke-dasharray="5,2" d="M303.5,-252C303.5,-252 199.5,-252 199.5,-252 193.5,-252 187.5,-246 187.5,-240 187.5,-240 187.5,-228 187.5,-228 187.5,-222 193.5,-216 199.5,-216 199.5,-216 303.5,-216 303.5,-216 309.5,-216 315.5,-222 315.5,-228 315.5,-228 315.5,-240 315.5,-240 315.5,-246 309.5,-252 303.5,-252"/>
<text text-anchor="middle" x="251.5" y="-231.5" font-family="sans" font-size="10.00">convert_fastq_to_fasta</text>
</g>
<!-- 3&#45;&gt;6 -->
<g id="edge8" class="edge">
<title>3&#45;&gt;6</title>
<path fill="none" stroke="grey" stroke-width="2" d="M216.87,-287.7C222.22,-279.56 228.7,-269.69 234.61,-260.7"/>
<polygon fill="grey" stroke="grey" stroke-width="2" points="237.69,-262.38 240.26,-252.1 231.84,-258.54 237.69,-262.38"/>
</g>
<!-- 4 -->
<g id="node5" class="node">
<title>4</title>
<path fill="none" stroke="#97d856" stroke-width="2" d="M377.5,-108C377.5,-108 279.5,-108 279.5,-108 273.5,-108 267.5,-102 267.5,-96 267.5,-96 267.5,-84 267.5,-84 267.5,-78 273.5,-72 279.5,-72 279.5,-72 377.5,-72 377.5,-72 383.5,-72 389.5,-78 389.5,-84 389.5,-84 389.5,-96 389.5,-96 389.5,-102 383.5,-108 377.5,-108"/>
<text text-anchor="middle" x="328.5" y="-87.5" font-family="sans" font-size="10.00">generate_count_table</text>
</g>
<!-- 4&#45;&gt;0 -->
<g id="edge3" class="edge">
<title>4&#45;&gt;0</title>
<path fill="none" stroke="grey" stroke-width="2" d="M293.76,-71.88C272.31,-61.3 244.81,-47.74 223.03,-37.01"/>
<polygon fill="grey" stroke="grey" stroke-width="2" points="224.29,-33.73 213.77,-32.44 221.19,-40 224.29,-33.73"/>
</g>
<!-- 5 -->
<g id="node6" class="node">
<title>5</title>
<path fill="none" stroke="#56d89a" stroke-width="2" stroke-dasharray="5,2" d="M427.5,-180C427.5,-180 281.5,-180 281.5,-180 275.5,-180 269.5,-174 269.5,-168 269.5,-168 269.5,-156 269.5,-156 269.5,-150 275.5,-144 281.5,-144 281.5,-144 427.5,-144 427.5,-144 433.5,-144 439.5,-150 439.5,-156 439.5,-156 439.5,-168 439.5,-168 439.5,-174 433.5,-180 427.5,-180"/>
<text text-anchor="middle" x="354.5" y="-159.5" font-family="sans" font-size="10.00">perform_taxonomic_annotation</text>
</g>
<!-- 5&#45;&gt;4 -->
<g id="edge5" class="edge">
<title>5&#45;&gt;4</title>
<path fill="none" stroke="grey" stroke-width="2" d="M348.07,-143.7C345.14,-135.81 341.61,-126.3 338.36,-117.55"/>
<polygon fill="grey" stroke="grey" stroke-width="2" points="341.62,-116.26 334.85,-108.1 335.05,-118.7 341.62,-116.26"/>
</g>
<!-- 6&#45;&gt;5 -->
<g id="edge6" class="edge">
<title>6&#45;&gt;5</title>
<path fill="none" stroke="grey" stroke-width="2" d="M276.7,-215.88C289.91,-206.89 306.29,-195.76 320.61,-186.03"/>
<polygon fill="grey" stroke="grey" stroke-width="2" points="322.9,-188.71 329.21,-180.19 318.97,-182.92 322.9,-188.71"/>
</g>
<!-- 7 -->
<g id="node8" class="node">
<title>7</title>
<path fill="none" stroke="#d6d856" stroke-width="2" stroke-dasharray="5,2" d="M465,-252C465,-252 346,-252 346,-252 340,-252 334,-246 334,-240 334,-240 334,-228 334,-228 334,-222 340,-216 346,-216 346,-216 465,-216 465,-216 471,-216 477,-222 477,-228 477,-228 477,-240 477,-240 477,-246 471,-252 465,-252"/>
<text text-anchor="middle" x="405.5" y="-231.5" font-family="sans" font-size="10.00">build_reference_database</text>
</g>
<!-- 7&#45;&gt;5 -->
<g id="edge7" class="edge">
<title>7&#45;&gt;5</title>
<path fill="none" stroke="grey" stroke-width="2" d="M392.89,-215.7C386.9,-207.47 379.62,-197.48 373.02,-188.42"/>
<polygon fill="grey" stroke="grey" stroke-width="2" points="375.68,-186.13 366.96,-180.1 370.02,-190.25 375.68,-186.13"/>
</g>
</g>
</svg>
